# xmcd
#
# Track frame offsets:
#	150
#	12938
#	24670
#	36706
#	50112
#	62476
#	74036
#	85186
#	96794
#	108858
#	119842
#	132120
#	145056
#	158198
#	168730
#	182198
#	193554
#	202708
#
# Disc length: 2857 seconds
# Revision: 0
# Processed by: cddbd v1.5.2PL0 Copyright (c) Steve Scherf et al.
# Submitted via: dBpowerAMP V12.0
#
DISCID=080b2712
DTITLE=Junior Parker - Junior's Blues-The Duke Recordings, Vol. 1 [MCA] (tape)
DYEAR=1992
DGENRE=Blues
TTITLE0=I Wanna Ramble
TTITLE1=Mother-In-Law Blues
TTITLE2=Next Time You See Me
TTITLE3=That's Alright
TTITLE4=Sittin' Drinkin' and Thinkin'
TTITLE5=Sweet Home Chicago
TTITLE6=Sometimes
TTITLE7=Stand by Me
TTITLE8=Driving Wheel
TTITLE9=Seven Days
TTITLE10=In the Dark
TTITLE11=Someone Somewhere
TTITLE12=It's a Pity
TTITLE13=Yonders Wall
TTITLE14=Strange Things Happening
TTITLE15=The Things I Used to Do
TTITLE16=Jivin' Woman
TTITLE17=Cryin' for My Baby
EXTD=
EXTT0=
EXTT1=
EXTT2=
EXTT3=
EXTT4=
EXTT5=
EXTT6=
EXTT7=
EXTT8=
EXTT9=
EXTT10=
EXTT11=
EXTT12=
EXTT13=
EXTT14=
EXTT15=
EXTT16=
EXTT17=
PLAYORDER=
